#!OML:ASF F:\VICON\USERDATA\INSTALL\rory3\rory3.ASF
:FULLY-SPECIFIED
:DEGREES
145
root 1.66705 18.0433 41.8396 -5.44919 -5.50098 5.05941
lowerback 28.2379 -3.24667 -0.284591
upperback 3.91841 -3.53749 6.16642
thorax -10.7817 -1.50424 8.55293
lowerneck 2.26712 -12.9861 -10.7804
upperneck 28.0675 -18.2045 1.71472
head 9.74746 -9.40287 0.818521
rclavicle 3.26007e-014 2.22639e-014
rhumerus -29.569 -27.7183 -30.2635
rradius 98.7785
rwrist 17.9365
rhand -2.47172 13.5083
rfingers 7.12502
rthumb 23.2209 -15.1118
lclavicle 3.26007e-014 2.22639e-014
lhumerus -50.8001 11.4521 75.54
lradius 48.8984
lwrist 7.2827
lhand -4.94175 51.4399
lfingers 7.12502
lthumb 20.8494 80.3396
rfemur -24.6038 3.6525 15.1952
rtibia 38.783
rfoot -6.73978 -11.8338
rtoes 11.9625
lfemur -18.4115 2.39317 -22.2466
ltibia 41.3221
lfoot -13.9304 2.62762
ltoes -26.4567
146
root 1.69116 18.0258 41.7537 -5.47105 -5.67716 5.79197
lowerback 27.7988 -3.27414 -0.341538
upperback 4.40756 -3.65087 5.97639
thorax -9.98812 -1.6045 8.31658
lowerneck 1.02227 -12.86 -10.6404
upperneck 27.1227 -18.0621 2.59979
head 9.68042 -9.2184 1.04084
rclavicle -7.95139e-016 -4.45278e-014
rhumerus -28.5049 -25.8067 -32.1171
rradius 98.4279
rwrist 19.7035
rhand -2.43544 13.2134
rfingers 7.12502
rthumb 23.2557 -15.4022
lclavicle -7.95139e-016 -4.45278e-014
lhumerus -49.6194 10.8455 76.1909
lradius 48.5803
lwrist 7.29124
lhand -4.96717 51.1893
lfingers 7.12502
lthumb 20.825 80.0917
rfemur -25.1946 3.30439 14.3068
rtibia 39.1762
rfoot -6.35523 -11.1892
rtoes 12.2953
lfemur -18.8275 3.1313 -23.3641
ltibia 42.9282
lfoot -14.268 2.85968
ltoes -28.5561
147
root 1.6918 18.0093 41.6655 -5.79138 -6.23619 5.36885
lowerback 27.6428 -3.22056 0.144967
upperback 5.14866 -3.45974 6.21825
thorax -9.10211 -1.57826 8.17251
lowerneck 0.996832 -13.0582 -10.3941
upperneck 27.0368 -18.2083 2.10436
head 9.58965 -9.30001 0.831809
rclavicle 2.3059e-014 -1.59028e-014
rhumerus -26.9828 -24.1382 -34.0592
rradius 97.1866
rwrist 21.2733
rhand -3.05875 13.2283
rfingers 7.12502
rthumb 22.6576 -15.4617
lclavicle 2.3059e-014 -1.59028e-014
lhumerus -48.386 10.453 76.8232
lradius 48.4382
lwrist 7.12568
lhand -5.00635 50.9211
lfingers 7.12502
lthumb 20.7873 79.8276
rfemur -25.1491 3.58055 14.9469
rtibia 39.6599
rfoot -6.94699 -10.8847
rtoes 13.3264
lfemur -18.715 4.26523 -23.016
ltibia 44.3174
lfoot -14.13 2.69481
ltoes -28.0776
148
root 1.7139 17.9825 41.5713 -6.11301 -6.65335 5.35763
lowerback 28.6299 -3.23287 0.440503
upperback 5.02121 -3.32692 6.32745
thorax -9.77137 -1.4932 8.1845
lowerneck 0.846544 -12.8903 -10.2781
upperneck 26.7524 -17.9503 2.09227
head 9.47957 -9.17184 0.841061
rclavicle 5.56597e-015 1.27222e-014
rhumerus -26.6706 -20.5869 -35.3364
rradius 96.2851
rwrist 22.4663
rhand -3.83962 12.3355
rfingers 7.12502
rthumb 21.908 -16.4441
lclavicle 5.56597e-015 1.27222e-014
lhumerus -48.5993 9.93772 77.2421
lradius 48.6068
lwrist 6.97956
lhand -4.93061 50.8356
lfingers 7.12502
lthumb 20.8601 79.7342
rfemur -25.5382 3.55703 15.0227
rtibia 39.9822
rfoot -6.62223 -10.7474
rtoes 11.498
lfemur -18.7038 5.09426 -23.1945
ltibia 45.8202
lfoot -14.2571 2.5481
ltoes -26.4583
149
root 1.74154 17.95 41.4789 -6.12966 -6.75237 6.57473
lowerback 28.5645 -3.08917 -0.0893464
upperback 5.10055 -3.3367 6.05132
thorax -9.63316 -1.49196 8.16238
lowerneck 0.629152 -12.9328 -10.0833
upperneck 26.3466 -17.9636 2.06891
head 9.34917 -9.1574 0.804136
rclavicle -8.74653e-015 2.8625e-014
rhumerus -26.2781 -18.0256 -36.5946
rradius 95.0146
rwrist 23.689
rhand -4.60917 11.3586
rfingers 7.12502
rthumb 21.1689 -17.5057
lclavicle -8.74653e-015 2.8625e-014
lhumerus -48.0587 9.4073 77.7359
lradius 48.6743
lwrist 6.58082
lhand -4.69367 50.8374
lfingers 7.12502
lthumb 21.0877 79.7107
rfemur -26.3817 3.12265 13.5901
rtibia 40.4022
rfoot -6.18319 -10.3055
rtoes 12.4443
lfemur -19.0534 5.56656 -24.8732
ltibia 47.3434
lfoot -14.4034 2.85522
ltoes -28.4544
150
root 1.76545 17.9225 41.3834 -6.2058 -6.93666 6.12523
lowerback 29.1209 -3.24328 0.715028
upperback 5.04444 -3.23906 6.2778
thorax -10.021 -1.4503 7.97739
lowerneck 0.915437 -12.9035 -10.0429
upperneck 25.9385 -17.8992 1.96793
head 9.13406 -9.14083 0.810804
rclavicle -1.82882e-014 -9.54166e-015
rhumerus -25.8362 -15.2144 -37.8171
rradius 93.4602
rwrist 24.8393
rhand -5.21219 10.8336
rfingers 7.12502
rthumb 20.5895 -18.0945
lclavicle -1.82882e-014 -9.54166e-015
lhumerus -47.9453 9.05576 78.1289
lradius 48.7537
lwrist 6.42471
lhand -4.27613 50.931
lfingers 7.12502
lthumb 21.4888 79.7591
rfemur -26.7107 2.92911 14.0493
rtibia 40.606
rfoot -5.7257 -9.50736
rtoes 14.054
lfemur -19.1872 6.22044 -24.6667
ltibia 49.0271
lfoot -14.0844 1.78748
ltoes -26.1088
151
root 1.76067 17.8869 41.2782 -6.07993 -7.51612 6.25336
lowerback 29.5073 -2.97617 0.422221
upperback 4.73243 -2.94288 6.73259
thorax -10.0228 -1.35391 8.01703
lowerneck 0.795987 -12.9018 -10.0692
upperneck 26.3377 -17.8359 1.64914
head 9.26583 -9.1351 0.695487
rclavicle -6.20208e-014 2.22639e-014
rhumerus -25.1098 -12.5473 -39.1137
rradius 91.3372
rwrist 26.0824
rhand -6.0978 10.1654
rfingers 7.12502
rthumb 19.7383 -18.8524
lclavicle -6.20208e-014 2.22639e-014
lhumerus -47.6765 8.61502 78.6023
lradius 48.8405
lwrist 6.46263
lhand -4.40903 50.9404
lfingers 7.12502
lthumb 21.3611 79.783
rfemur -27.6849 3.76016 14.0159
rtibia 40.9932
rfoot -5.38058 -8.91179
rtoes 14.5102
lfemur -19.848 7.25834 -24.9056
ltibia 50.7239
lfoot -13.6289 1.03773
ltoes -24.7794
152
root 1.78174 17.8519 41.1729 -6.05573 -7.69208 6.35748
lowerback 29.8395 -2.95672 0.63507
upperback 4.70956 -2.82004 6.856
thorax -10.212 -1.2961 8.01088
lowerneck 0.648294 -12.9168 -10.4976
upperneck 26.3143 -17.909 2.05219
head 9.37361 -9.16499 0.86195
rclavicle -4.85035e-014 1.90833e-014
rhumerus -24.3184 -10.2543 -40.237
rradius 88.6701
rwrist 27.2033
rhand -7.21809 9.84704
rfingers 7.12502
rthumb 18.6611 -19.2779
lclavicle -4.85035e-014 1.90833e-014
lhumerus -47.3713 8.09219 79.1229
lradius 49.0805
lwrist 6.52325
lhand -4.41127 50.7293
lfingers 7.12502
lthumb 21.359 79.5721
rfemur -28.2607 3.65601 13.8925
rtibia 41.1761
rfoot -5.10901 -8.22258
rtoes 13.837
lfemur -20.3564 7.81089 -25.2964
ltibia 52.5359
lfoot -13.455 0.797298
ltoes -25.0169
153
root 1.80313 17.8135 41.0766 -6.09053 -7.81709 6.78528
lowerback 30.1137 -2.88132 0.613255
upperback 4.60321 -2.70769 6.87185
thorax -10.4618 -1.23297 8.02195
lowerneck 0.864762 -12.8893 -10.4362
upperneck 25.7748 -17.861 2.06554
head 9.13339 -9.14252 0.899733
rclavicle 1.35174e-014 -2.54444e-014
rhumerus -23.6669 -8.16479 -41.1605
rradius 85.6438
rwrist 28.3003
rhand -8.47698 10.0188
rfingers 7.12502
rthumb 17.4498 -19.218
lclavicle 1.35174e-014 -2.54444e-014
lhumerus -47.2237 7.57306 79.5685
lradius 49.4242
lwrist 6.49518
lhand -4.57818 50.7696
lfingers 7.12502
lthumb 21.1987 79.6305
rfemur -28.8409 3.46764 13.3725
rtibia 41.4304
rfoot -4.75443 -7.93509
rtoes 13.6321
lfemur -20.6548 8.23913 -26.06
ltibia 54.291
lfoot -13.4249 0.528162
ltoes -24.5337
154
root 1.80528 17.7828 40.9893 -6.43863 -8.40324 6.19163
lowerback 30.3621 -2.76289 1.24084
upperback 4.93501 -2.33778 7.13761
thorax -10.257 -1.09283 7.82599
lowerneck 1.0544 -13.0546 -10.4573
upperneck 25.9783 -18.0164 1.6459
head 9.14676 -9.25096 0.758393
rclavicle -1.11319e-014 6.36111e-015
rhumerus -22.8973 -6.57692 -42.142
rradius 82.5192
rwrist 29.4606
rhand -9.81947 9.88452
rfingers 7.12502
rthumb 16.1575 -19.462
lclavicle -1.11319e-014 6.36111e-015
lhumerus -46.6961 7.10277 79.8856
lradius 49.7392
lwrist 6.51332
lhand -4.30822 50.6837
lfingers 7.12502
lthumb 21.458 79.5153
rfemur -28.9189 4.17432 14.1275
rtibia 41.6342
rfoot -4.38578 -8.53383
rtoes 12.6875
lfemur -20.4316 9.11449 -25.4199
ltibia 56.0411
lfoot -13.134 -0.601842
ltoes -22.7301
155
root 1.82908 17.7481 40.8917 -6.67307 -8.55634 6.13527
lowerback 29.9306 -2.75503 1.88143
upperback 5.6563 -2.21309 7.06938
thorax -9.30088 -1.08664 7.29105
lowerneck 0.358449 -13.2818 -9.9769
upperneck 25.6441 -18.2581 1.62605
head 9.1125 -9.30356 0.620941
rclavicle 2.54444e-014 -6.36111e-015
rhumerus -21.8286 -6.21687 -43.2254
rradius 79.2059
rwrist 30.6181
rhand -10.7244 9.87414
rfingers 7.12502
rthumb 15.286 -19.541
lclavicle 2.54444e-014 -6.36111e-015
lhumerus -45.1257 6.33537 80.198
lradius 49.7991
lwrist 6.65078
lhand -4.03956 50.5621
lfingers 7.12502
lthumb 21.716 79.3641
rfemur -29.1601 4.04589 14.1865
rtibia 41.9013
rfoot -4.08007 -8.32054
rtoes 11.7145
lfemur -20.3903 9.55632 -25.5717
ltibia 57.7441
lfoot -12.692 -1.54525
ltoes -22.3481
156
root 1.86139 17.708 40.7836 -6.67198 -8.50523 6.77647
lowerback 30.7942 -2.71257 1.63438
upperback 5.06359 -2.13716 7.07375
thorax -10.3279 -1.01236 7.4792
lowerneck 0.894515 -13.2095 -10.3037
upperneck 25.598 -18.1931 1.64113
head 9.03487 -9.31239 0.719289
rclavicle -1.02573e-013 1.20861e-013
rhumerus -21.4889 -4.64767 -43.7726
rradius 75.805
rwrist 31.706
rhand -11.1059 9.83961
rfingers 7.12502
rthumb 14.9185 -19.6032
lclavicle -1.02573e-013 1.20861e-013
lhumerus -45.4866 5.9638 80.5133
lradius 49.9992
lwrist 6.64749
lhand -3.94193 50.575
lfingers 7.12502
lthumb 21.8097 79.3661
rfemur -29.8969 3.3787 13.4173
rtibia 42.1979
rfoot -3.79988 -7.45716
rtoes 11.9939
lfemur -20.653 9.7333 -26.655
ltibia 59.3451
lfoot -12.3288 -2.11998
ltoes -23.3427
157
root 1.849 17.6641 40.6959 -6.8969 -9.23941 6.79144
lowerback 31.772 -2.30489 1.1778
upperback 4.59793 -1.63996 7.39585
thorax -11.3154 -0.734084 7.97391
lowerneck 1.45082 -13.1055 -10.7408
upperneck 26.0905 -18.0508 1.35277
head 9.12307 -9.32021 0.724727
rclavicle -6.67916e-014 5.08889e-014
rhumerus -21.1158 -3.24757 -44.2739
rradius 72.3207
rwrist 32.76
rhand -11.0367 9.64102
rfingers 7.12502
rthumb 14.9851 -19.7968
lclavicle -6.67916e-014 5.08889e-014
lhumerus -46.1646 5.71249 80.7776
lradius 50.3252
lwrist 6.63567
lhand -4.47551 49.8072
lfingers 7.12502
lthumb 21.2973 78.657
rfemur -30.4804 4.27637 13.5906
rtibia 42.5434
rfoot -3.47369 -7.47503
rtoes 11.8448
lfemur -20.5752 10.748 -26.5919
ltibia 61.0012
lfoot -11.6266 -3.28463
ltoes -22.6176
